<svg width="180" height="56" viewBox="0 0 180 56" fill="none" xmlns="http://www.w3.org/2000/svg">
<path d="M15.1394 0.614583C14.7793 0.972193 14.5111 1.42169 14.5111 1.60794C14.5409 2.65594 15.8894 4.78421 17.5657 6.4009C21.1021 9.81806 25.1773 11.554 27.1243 10.5358C29.3122 9.36857 25.2369 3.73374 20.5036 1.45646C17.5359 0.0111207 15.9813 -0.224806 15.1394 0.614583Z" fill="white"/>
<path d="M32.0988 3.54992C31.7387 3.91001 31.8877 5.43731 32.367 6.4257C32.968 7.62519 35.064 9.84286 36.1443 10.3991C37.4009 11.0572 38.6898 10.938 38.9009 10.1508C39.1492 9.19221 37.9075 6.67404 36.5938 5.41744C34.7958 3.73618 32.7569 2.89182 32.0988 3.54992Z" fill="white"/>
<path d="M67.4549 8.43517C65.9276 8.73318 64.7877 9.60238 64.3382 10.8615C64.0899 11.5494 63.9782 14.6064 63.9782 20.3307L63.9484 28.809H69.0418V16.8887L70.0029 16.7099C71.2893 16.4392 72.0393 15.7165 72.0393 14.671C72.0393 13.8614 71.9797 13.8316 70.512 13.8316H69.0219L69.1138 12.873C69.2032 11.9442 69.2926 11.8548 70.6411 11.6164L72.0492 11.3681V8.13965L70.3406 8.16945C69.374 8.19615 68.4101 8.28491 67.4549 8.43517Z" fill="white"/>
<path d="M77.1327 8.07471V11.4348H82.2261V10.3868C82.2261 9.00848 81.2328 8.34788 78.9009 8.19888L77.1327 8.07471Z" fill="white"/>
<path d="M87.6202 17.4821C87.6202 27.9695 87.6202 27.9397 89.6566 28.5084C90.7935 28.7189 91.9474 28.8228 93.1036 28.8189H95.4107V25.5234H94.2708C93.6425 25.5234 92.9844 25.3744 92.7808 25.1633C92.5771 24.9522 92.4207 23.4249 92.4207 20.4299V16.0244L93.6201 15.6643C94.8494 15.3067 95.4181 14.6461 95.4181 13.5683C95.4181 13.0294 95.2393 12.9375 93.9281 12.9375H92.438V11.1395C92.438 9.55265 92.3486 9.31176 91.6607 8.83247C91.241 8.56426 90.1707 8.26376 89.2618 8.20416L87.6451 8.08496L87.6202 17.4821Z" fill="white"/>
<path d="M2.61594 9.06327C0.577065 9.66177 0.15737 11.6708 1.62258 13.8562C3.11262 16.1335 6.62663 18.4704 10.3145 19.6997C12.5918 20.4447 16.4882 20.4447 17.5958 19.7295C19.5825 18.4406 19.0858 16.3148 16.2473 13.6774C12.5917 10.2926 6.06041 8.07488 2.61594 9.06327Z" fill="white"/>
<path d="M43.634 10.5907C43.1373 11.0874 43.1845 11.8796 43.8823 13.1685C44.6596 14.6585 45.0794 15.1552 45.9485 15.6246C46.5768 15.9549 46.7283 15.9251 47.0561 15.4756C47.7465 14.517 46.9071 12.3291 45.3798 11.0055C44.2921 10.1412 44.1431 10.0816 43.634 10.5907Z" fill="white"/>
<path d="M105.809 12.9571C104.368 13.2874 102.603 14.1988 101.942 14.9438C100.713 16.2923 100.504 17.4893 100.504 23.2731V28.8186H105.598V23.3054C105.598 17.9413 105.627 17.7326 106.288 16.9529C107.187 15.9347 109.516 15.6044 110.932 16.3544C112.221 17.0125 112.489 18.2119 112.489 23.3079C112.489 28.3417 112.608 28.5503 115.487 28.7714L117.284 28.8906V23.4271C117.284 17.3154 117.036 16.0564 115.665 14.7079C113.927 12.9894 109.194 12.15 105.809 12.9571Z" fill="white"/>
<path d="M132.95 16.5831C133.429 16.8314 134.358 18.5027 134.358 19.0665C134.358 19.1559 132.679 19.2155 130.613 19.2155C128.547 19.2155 126.868 19.1559 126.868 19.0665C126.868 18.8181 127.735 16.8314 127.827 16.8314C127.918 16.8314 128.455 16.6203 129.113 16.3819C130.372 15.9645 131.742 16.0363 132.95 16.5831ZM126.776 13.1386C123.421 14.3977 121.772 16.8836 121.772 20.7179C121.772 25.5134 124.469 28.4165 129.413 28.9281C132.985 29.3155 136.459 28.0887 138.165 25.8387C139.692 23.8296 139.573 23.621 136.923 23.77C135.247 23.8892 134.497 24.0705 133.749 24.6094C132.461 25.5382 130.002 25.7468 128.716 25.0887C127.722 24.592 127.367 24.0705 127.037 22.722L126.858 21.9125H139.523L139.374 19.8761C139.126 16.67 137.696 14.5119 134.969 13.3124C133.315 12.5997 128.549 12.478 126.781 13.1386H126.776Z" fill="white"/>
<path d="M147.726 12.9575C145.029 13.6181 143.35 15.4409 143.35 17.7231C143.35 18.8009 143.531 19.161 144.49 20.1196C145.627 21.2272 147.425 21.8878 152.102 22.8166C154.918 23.3853 155.787 24.6444 153.959 25.4837C153.03 25.9034 150.542 25.9034 149.489 25.5135C148.945 25.2575 148.495 24.8382 148.2 24.3141C147.703 23.4151 147.704 23.4151 145.295 23.4747L142.896 23.5665L142.988 24.4655C143.137 25.7817 144.065 27.1004 145.414 27.8504C148.111 29.3777 154.404 29.3777 157.369 27.8504C159.107 26.9514 160.245 25.0342 160.036 23.3257C159.736 21.1676 158.149 20.1494 153.264 19.0418C149.37 18.1726 148.441 17.8001 148.441 17.1246C148.441 16.1635 149.218 15.8655 151.376 15.9847C153.085 16.0741 153.594 16.2331 154.404 16.9135C155.27 17.6337 155.631 17.7231 157.428 17.7231H159.497L159.226 16.8241C158.447 14.1272 156.11 12.8681 151.737 12.7489C150.182 12.6893 148.347 12.7787 147.726 12.9575Z" fill="white"/>
<path d="M167.171 13.1387C164.476 13.9483 163.128 15.5054 163.128 17.8422C163.128 20.1195 165.313 21.4978 170.469 22.4862C171.462 22.6973 172.835 23.0549 173.553 23.2958C174.604 23.6857 174.842 23.8943 174.753 24.4034C174.633 25.2726 173.464 25.8115 171.606 25.8115C169.57 25.8115 168.611 25.4241 167.98 24.3214C167.484 23.4224 167.484 23.4224 165.075 23.482L162.678 23.5739L162.768 24.4729C163.036 26.8686 165.043 28.3363 168.79 28.876C173.195 29.4745 177.569 28.4265 179.096 26.3926C179.906 25.2527 180.089 23.1642 179.456 21.9572C178.823 20.7503 177.298 20.0102 173.074 19.0815C169.1 18.1825 168.221 17.8224 168.221 17.0947C168.221 16.228 169.299 15.8381 171.368 15.9871C172.835 16.0765 173.434 16.2578 174.184 16.9159C175.053 17.6361 175.411 17.7255 177.238 17.7255C179.277 17.7255 179.337 17.6957 179.158 17.0351C178.798 15.8977 177.988 14.6685 177.209 14.07C175.351 12.6892 170.168 12.2099 167.171 13.1387Z" fill="white"/>
<path d="M77.1327 12.9248V28.8186H82.2261V21.5372C82.2261 14.2857 82.2261 14.2261 81.5382 13.5904C80.9671 13.0515 80.4878 12.9298 78.9903 12.9298L77.1327 12.9248Z" fill="white"/>
<path d="M50.1655 18.4702C49.7458 18.9818 49.9867 20.2384 50.7665 21.5571C51.365 22.5157 52.3236 22.846 52.7135 22.1879C53.0736 21.6167 52.562 19.8485 51.7847 18.9197C50.9155 17.8916 50.7044 17.8419 50.1655 18.4702Z" fill="white"/>
<path d="M116.385 30.6067V45.3183L117.13 46.0385C117.791 46.7264 118.089 46.7835 120.426 46.7835H122.974V45.5865C122.974 44.5062 122.884 44.387 122.254 44.387C120.607 44.387 120.577 44.2976 120.577 40.3118C120.577 37.1653 120.637 36.5867 121.027 36.5867C121.625 36.5867 122.974 35.2382 122.974 34.6397C122.974 34.3094 122.644 34.1902 121.774 34.1902H120.577V32.9907C120.577 31.2821 119.798 30.5942 117.88 30.5942L116.385 30.6067Z" fill="white"/>
<path d="M67.815 34.3516C63.6205 35.7001 62.2422 41.5733 65.3316 44.9582C67.9987 47.9556 74.8902 47.6253 77.078 44.3895C77.3553 44.009 77.5769 43.5909 77.7362 43.1478C77.7362 42.9988 76.9589 42.8796 75.9705 42.8796C74.7114 42.8796 74.021 43.0286 73.4871 43.4483C72.9327 43.8641 72.2815 44.1318 71.595 44.2261C70.9084 44.3204 70.2092 44.2382 69.5633 43.9872C68.2148 43.4185 67.7653 42.5493 67.7653 40.4831C67.7653 38.4169 68.2148 37.5452 69.531 37.0063C70.7007 36.527 72.5881 36.8275 73.2561 37.6346C73.5243 37.9649 74.2147 38.0841 75.6824 38.0841H77.7784L77.3214 37.2621C76.664 36.1211 75.67 35.2113 74.4754 34.657C73.0996 33.9617 69.5533 33.7854 67.815 34.3516Z" fill="white"/>
<path d="M89.957 37.6767C91.2161 39.0848 90.9156 39.2959 87.6201 39.2959C85.9711 39.2959 84.6227 39.2363 84.6227 39.1469C84.7329 38.7811 84.8837 38.4288 85.0722 38.0964C85.9116 36.4797 88.6383 36.2687 89.957 37.6767ZM84.804 34.3217C82.3777 35.2207 80.9075 36.9293 80.5499 39.1767C79.8297 44.1187 83.1252 47.4166 88.4595 46.997C90.7666 46.8157 92.8924 45.7975 93.8535 44.3894C94.1297 44.0082 94.3512 43.5903 94.5116 43.1477C94.5116 42.9987 93.7665 42.8795 92.8328 42.8795C91.5762 42.8795 90.9156 43.0583 90.2277 43.5376C88.8792 44.4962 86.6615 44.4664 85.7029 43.4482C85.3018 43.0461 84.9859 42.5671 84.7742 42.0401L84.5929 41.3795H94.8121V40.0633C94.8121 37.9946 93.4934 35.7471 91.7252 34.8184C89.957 33.8896 86.5721 33.6636 84.804 34.3217Z" fill="white"/>
<path d="M103.291 34.2029C101.373 34.5928 99.6648 35.611 99.0961 36.6863C98.6764 37.4313 98.5572 38.6333 98.4678 42.1994L98.3461 46.7838H102.603V42.4403C102.603 38.1838 102.632 38.0348 103.348 37.3469C104.276 36.3883 106.079 36.3262 107.214 37.2252C107.992 37.8262 107.992 37.8858 107.992 41.7201C107.992 46.3641 108.203 46.7838 110.689 46.7838H112.179V42.6514C112.146 36.9396 111.607 35.5812 108.95 34.6524C107.157 34.0514 104.887 33.8726 103.291 34.2029Z" fill="white"/>
<path d="M161.089 34.2025C159.231 34.5924 157.523 35.6702 156.984 36.7778C156.654 37.498 156.534 38.8167 156.534 42.2612V46.7859H160.61L160.58 42.291C160.58 36.9591 160.669 36.748 163.277 36.748C165.884 36.748 165.944 36.9591 166.063 42.291L166.153 46.7859H170.407L170.228 42.892C170.109 40.5551 170.168 38.6975 170.347 38.1561C170.888 36.599 173.464 36.0601 174.931 37.2273C175.711 37.8283 175.711 37.8879 175.711 41.7223C175.711 46.396 175.92 46.7859 178.443 46.7859H180L179.851 42.1718C179.702 36.748 179.401 36.0303 177.094 34.8309C175.835 34.2026 175.237 34.0858 173.049 34.0858C171.373 34.0858 170.084 34.2646 169.364 34.5825C168.37 35.0022 168.104 35.0022 167.205 34.6421C165.884 34.0833 162.708 33.8723 161.089 34.2025Z" fill="white"/>
<path d="M132.714 34.4111C130.479 34.9202 129.749 35.2207 128.76 36.0899C127.111 37.5278 126.873 38.4268 126.873 42.8919V46.7859H130.767L130.797 43.5575C130.797 39.512 131.157 38.3746 132.565 37.8953C133.222 37.6761 133.908 37.5548 134.601 37.5352L135.56 37.5054V34.21L134.452 34.2398C133.869 34.2514 133.288 34.3087 132.714 34.4111Z" fill="white"/>
<path d="M139.215 38.606C139.426 44.3005 139.695 45.0182 142.064 46.0985C145.478 47.6555 150.482 46.9056 152.161 44.6084C152.73 43.8634 152.79 43.2301 152.879 38.9761L152.968 34.2129H151.478C150.219 34.2129 149.891 34.3321 149.382 34.9902C148.811 35.7104 148.752 36.2319 148.752 39.4256C148.752 41.4123 148.632 43.2003 148.503 43.3816C147.694 44.5786 145.175 44.7599 144.098 43.6498C143.38 42.9619 143.353 42.8129 143.353 38.5564V34.2129H139.069L139.215 38.606Z" fill="white"/>
<path d="M50.5603 18.0755C49.8674 18.1699 49.8674 19.0192 49.8674 19.5258C49.8674 20.6483 50.6546 22.9256 52.1968 22.568C54.1836 22.1036 52.316 17.8197 50.5603 18.0755ZM43.5745 10.5309C42.4992 11.0077 43.3733 13.6849 44.5902 14.9564C45.134 15.5251 46.2218 16.2254 46.9892 15.6244C47.6696 15.1054 47.4386 13.9084 47.2375 13.2279C46.634 11.271 45.2508 9.39106 43.5819 10.5309M2.53132 8.92914C-1.12424 10.0914 1.02143 14.1269 2.83183 15.8827C6.08012 18.9844 12.7207 22.0018 17.2107 20.2311C20.6204 18.9298 18.3903 15.088 16.5625 13.4216C13.2795 10.4291 7.09333 7.48878 2.53132 8.93908M32.2899 3.3713C31.2966 3.97229 31.597 5.48964 32.0217 6.35138C32.794 8.05996 34.3909 9.87781 36.092 10.7097C36.7774 11.0475 37.8875 11.3703 38.6077 10.8463C39.3875 10.1882 39.015 8.64107 38.6772 7.84887C37.8594 6.00821 36.4104 4.52055 34.592 3.6544C33.9314 3.35391 32.9853 2.95905 32.2899 3.37626M15.2116 0.366381C13.5899 1.44914 15.1172 4.07659 15.9566 5.1519C17.8839 7.68284 20.514 9.59 23.5185 10.6353C24.5814 11.0102 26.002 11.4448 27.045 10.7917C28.8454 9.69403 27.5268 7.25285 26.6104 6.05089C24.718 3.56749 21.9813 1.46405 19.0236 0.430951C17.993 0.0708584 16.2149 -0.294204 15.224 0.366381" fill="#E52428"/>
<path d="M38.1806 47.8438C36.2882 48.2834 34.5622 49.7834 33.9414 51.5689C33.1492 53.9654 34.9497 55.5896 37.2816 55.1649C38.2254 55.0146 39.1064 54.5972 39.8206 53.9622C40.5349 53.3272 41.0524 52.5011 41.3121 51.5813C41.8957 49.3463 40.659 47.3074 38.183 47.8562M48.0719 45.5417C45.5885 45.8074 44.476 51.3529 47.471 51.2163C50.3219 51.0872 51.0669 45.2139 48.0719 45.5417ZM21.9962 43.0434C19.555 43.5029 16.4881 44.8116 15.2762 47.0988C13.0063 51.3802 18.6784 52.5424 21.6957 52.0085C24.1593 51.5938 26.8786 50.737 28.4009 48.5963C28.722 48.1486 28.9523 47.6424 29.0789 47.1063C30.0226 42.9118 24.8894 42.5318 22.0062 43.0509M52.927 40.1552C51.1886 40.8133 51.2134 45.2412 53.4386 44.5111C55.2365 43.9201 55.0677 39.3754 52.927 40.1552ZM6.73575 27.7581C3.6911 28.2299 -1.92637 30.4352 0.663816 34.5204C1.0133 35.034 1.44449 35.487 1.94029 35.8614C4.84338 38.1387 9.49728 38.536 13.0262 37.9847C15.9069 37.5352 21.1991 35.3623 18.7976 31.5279C18.4366 31.0104 18.0053 30.5457 17.5162 30.1471C14.6901 27.8599 10.2373 27.2564 6.73575 27.7606" fill="#99C32E"/>
</svg>
