<svg width="138" height="43" viewBox="0 0 138 43" fill="none" xmlns="http://www.w3.org/2000/svg">
<path d="M11.6069 0.471197C11.3309 0.745364 11.1252 1.08998 11.1252 1.23277C11.1481 2.03623 12.1819 3.66791 13.4671 4.90737C16.1783 7.52719 19.3027 8.85805 20.7954 8.07744C22.4727 7.18259 19.3484 2.86255 15.7195 1.11663C13.4442 0.00854217 12.2524 -0.172335 11.6069 0.471197Z" fill="#252525"/>
<path d="M24.609 2.72183C24.3329 2.99791 24.4471 4.16883 24.8146 4.9266C25.2753 5.8462 26.8823 7.54642 27.7105 7.9729C28.6739 8.47745 29.662 8.38606 29.8239 7.78251C30.0143 7.04759 29.0623 5.11699 28.0551 4.1536C26.6766 2.86463 25.1135 2.21729 24.609 2.72183Z" fill="#252525"/>
<path d="M51.7153 6.4668C50.5444 6.69528 49.6705 7.36166 49.3259 8.32696C49.1355 8.85435 49.0498 11.1981 49.0498 15.5867L49.027 22.0867H52.932V12.9478L53.6688 12.8107C54.655 12.6032 55.23 12.0492 55.23 11.2476C55.23 10.6269 55.1843 10.6041 54.0591 10.6041H52.9167L52.9872 9.86914C53.0557 9.15707 53.1242 9.08853 54.1581 8.90575L55.2376 8.71536V6.24023L53.9277 6.26308C53.1867 6.28355 52.4477 6.3516 51.7153 6.4668Z" fill="#252525"/>
<path d="M59.135 6.19067V8.76671H63.04V7.96325C63.04 6.90657 62.2784 6.40011 60.4906 6.28587L59.135 6.19067Z" fill="#252525"/>
<path d="M67.1754 13.403C67.1754 21.4433 67.1754 21.4205 68.7366 21.8565C69.6082 22.0178 70.4929 22.0975 71.3793 22.0945H73.1481V19.5679H72.2742C71.7925 19.5679 71.2879 19.4537 71.1318 19.2919C70.9757 19.13 70.8557 17.9591 70.8557 15.663V12.2854L71.7753 12.0093C72.7178 11.7351 73.1538 11.2287 73.1538 10.4024C73.1538 9.98923 73.0167 9.91878 72.0114 9.91878H70.8691V8.54033C70.8691 7.32371 70.8005 7.13903 70.2731 6.77157C69.9514 6.56595 69.1308 6.33557 68.4339 6.28987L67.1945 6.19849L67.1754 13.403Z" fill="#252525"/>
<path d="M2.0055 6.94849C0.442364 7.40734 0.120598 8.94762 1.24392 10.6231C2.38629 12.369 5.08036 14.1606 7.90771 15.1031C9.65362 15.6742 12.6409 15.6742 13.49 15.1259C15.0132 14.1378 14.6324 12.508 12.4562 10.486C9.6536 7.89094 4.64626 6.19072 2.0055 6.94849Z" fill="#252525"/>
<path d="M33.4527 8.11932C33.0719 8.50011 33.1081 9.10747 33.6431 10.0956C34.239 11.238 34.5608 11.6188 35.2272 11.9786C35.7089 12.2318 35.825 12.209 36.0764 11.8644C36.6056 11.1295 35.9621 9.45209 34.7912 8.43729C33.9573 7.77472 33.843 7.72902 33.4527 8.11932Z" fill="#252525"/>
<path d="M81.1198 9.93377C80.0155 10.187 78.6618 10.8857 78.1554 11.4569C77.2129 12.4908 77.053 13.4085 77.053 17.8427V22.0942H80.958V17.8675C80.958 13.755 80.9808 13.595 81.4873 12.9972C82.1765 12.2166 83.9624 11.9634 85.0476 12.5384C86.0358 13.0429 86.2414 13.9625 86.2414 17.8694C86.2414 21.7287 86.3328 21.8886 88.5394 22.0581L89.9179 22.1494V17.9608C89.9179 13.2752 89.7275 12.3099 88.6765 11.276C87.3438 9.95852 83.7149 9.31499 81.1198 9.93377Z" fill="#252525"/>
<path d="M101.928 12.7137C102.295 12.9041 103.008 14.1855 103.008 14.6177C103.008 14.6862 101.721 14.7319 100.136 14.7319C98.5524 14.7319 97.2653 14.6862 97.2653 14.6177C97.2653 14.4273 97.9298 12.9041 98.0002 12.9041C98.0706 12.9041 98.4819 12.7423 98.9864 12.5595C99.9515 12.2395 101.002 12.2945 101.928 12.7137ZM97.1948 10.073C94.6226 11.0383 93.3584 12.9441 93.3584 15.8838C93.3584 19.5603 95.4261 21.786 99.2168 22.1782C101.955 22.4752 104.618 21.5347 105.926 19.8097C107.097 18.2694 107.006 18.1095 104.974 18.2237C103.689 18.3151 103.114 18.4541 102.541 18.8673C101.553 19.5793 99.6681 19.7393 98.6818 19.2347C97.9202 18.8539 97.648 18.4541 97.3948 17.4203L97.2577 16.7996H106.968L106.854 15.2384C106.663 12.7804 105.566 11.1259 103.476 10.2063C102.208 9.65982 98.5542 9.56653 97.1986 10.073H97.1948Z" fill="#252525"/>
<path d="M113.256 9.9338C111.189 10.4402 109.902 11.8377 109.902 13.5875C109.902 14.4138 110.041 14.6898 110.776 15.4248C111.648 16.2739 113.026 16.7804 116.611 17.4924C118.77 17.9284 119.437 18.8937 118.035 19.5373C117.323 19.859 115.415 19.859 114.608 19.5601C114.191 19.3638 113.846 19.0423 113.62 18.6405C113.239 17.9513 113.239 17.9513 111.392 17.997L109.553 18.0674L109.624 18.7566C109.738 19.7657 110.45 20.7767 111.484 21.3517C113.551 22.5226 118.376 22.5226 120.649 21.3517C121.982 20.6625 122.854 19.1927 122.694 17.8827C122.464 16.2282 121.247 15.4476 117.502 14.5985C114.517 13.9321 113.805 13.6465 113.805 13.1286C113.805 12.3918 114.401 12.1633 116.055 12.2547C117.365 12.3232 117.755 12.4451 118.376 12.9668C119.041 13.5189 119.317 13.5875 120.695 13.5875H122.281L122.074 12.8982C121.476 10.8306 119.684 9.86525 116.331 9.77386C115.139 9.72817 113.732 9.79672 113.256 9.9338Z" fill="#252525"/>
<path d="M128.164 10.0729C126.099 10.6936 125.065 11.8874 125.065 13.679C125.065 15.4249 126.74 16.4816 130.693 17.2394C131.454 17.4012 132.507 17.6754 133.057 17.8601C133.863 18.159 134.046 18.3189 133.977 18.7092C133.886 19.3756 132.989 19.7887 131.565 19.7887C130.004 19.7887 129.269 19.4917 128.785 18.6464C128.404 17.9572 128.404 17.9572 126.557 18.0028L124.72 18.0733L124.789 18.7625C124.994 20.5992 126.533 21.7244 129.406 22.1382C132.783 22.597 136.136 21.7936 137.307 20.2343C137.928 19.3604 138.069 17.7591 137.583 16.8338C137.098 15.9085 135.929 15.3411 132.69 14.6291C129.644 13.9398 128.97 13.6638 128.97 13.1059C128.97 12.4414 129.796 12.1425 131.382 12.2568C132.507 12.3253 132.966 12.4643 133.541 12.9688C134.207 13.521 134.482 13.5895 135.883 13.5895C137.446 13.5895 137.492 13.5667 137.355 13.0602C137.079 12.1882 136.458 11.2458 135.86 10.7869C134.436 9.72832 130.462 9.36086 128.164 10.0729Z" fill="#252525"/>
<path d="M59.135 9.90918V22.0944H63.04V16.512C63.04 10.9525 63.04 10.9068 62.5126 10.4194C62.0747 10.0063 61.7072 9.91299 60.5592 9.91299L59.135 9.90918Z" fill="#252525"/>
<path d="M38.46 14.1605C38.1383 14.5527 38.3229 15.5161 38.9208 16.5271C39.3796 17.262 40.1146 17.5153 40.4135 17.0107C40.6896 16.5728 40.2974 15.2172 39.7014 14.5051C39.035 13.7169 38.8732 13.6788 38.46 14.1605Z" fill="#252525"/>
<path d="M89.2286 23.4651V34.744L89.7998 35.2962C90.3063 35.8236 90.5347 35.8673 92.3264 35.8673H94.2798V34.9496C94.2798 34.1214 94.2112 34.03 93.7276 34.03C92.4653 34.03 92.4425 33.9615 92.4425 30.9057C92.4425 28.4934 92.4882 28.0498 92.7871 28.0498C93.246 28.0498 94.2798 27.0159 94.2798 26.5571C94.2798 26.3039 94.0266 26.2125 93.3602 26.2125H92.4425V25.2929C92.4425 23.983 91.8447 23.4556 90.3748 23.4556L89.2286 23.4651Z" fill="#252525"/>
<path d="M51.9914 26.3363C48.7757 27.3702 47.719 31.873 50.0875 34.468C52.1323 36.7661 57.4158 36.5129 59.0931 34.032C59.3057 33.7403 59.4756 33.4198 59.5977 33.0801C59.5977 32.9658 59.0017 32.8744 58.244 32.8744C57.2787 32.8744 56.7494 32.9887 56.34 33.3104C55.915 33.6292 55.4158 33.8345 54.8894 33.9068C54.3631 33.9791 53.827 33.916 53.3318 33.7236C52.298 33.2876 51.9534 32.6212 51.9534 31.0371C51.9534 29.4531 52.298 28.7848 53.3071 28.3716C54.2038 28.0042 55.6508 28.2345 56.163 28.8533C56.3686 29.1066 56.8979 29.1979 58.0231 29.1979H59.63L59.2797 28.5677C58.7757 27.693 58.0136 26.9954 57.0978 26.5705C56.043 26.0374 53.3242 25.9022 51.9914 26.3363Z" fill="#252525"/>
<path d="M68.967 28.8857C69.9323 29.9652 69.7019 30.1271 67.1754 30.1271C65.9111 30.1271 64.8773 30.0814 64.8773 30.0128C64.9618 29.7324 65.0774 29.4622 65.2219 29.2075C65.8655 27.968 67.956 27.8062 68.967 28.8857ZM65.0163 26.3135C63.1561 27.0027 62.029 28.3126 61.7548 30.0357C61.2027 33.8245 63.7292 36.3529 67.8189 36.0312C69.5876 35.8922 71.2174 35.1116 71.9542 34.032C72.166 33.7398 72.3358 33.4194 72.4588 33.0801C72.4588 32.9658 71.8876 32.8744 71.1717 32.8744C70.2083 32.8744 69.7019 33.0115 69.1745 33.379C68.1406 34.1139 66.4404 34.0911 65.7055 33.3104C65.398 33.0022 65.1558 32.635 64.9934 32.2309L64.8545 31.7245H72.6892V30.7154C72.6892 29.1294 71.6782 27.4063 70.3226 26.6942C68.967 25.9822 66.3719 25.8089 65.0163 26.3135Z" fill="#252525"/>
<path d="M79.1892 26.222C77.7193 26.5209 76.4094 27.3016 75.9734 28.126C75.6517 28.6971 75.5603 29.6187 75.4917 32.3527L75.3984 35.8674H78.6618V32.5374C78.6618 29.274 78.6846 29.1598 79.233 28.6324C79.945 27.8975 81.3273 27.8499 82.1974 28.5391C82.7933 28.9999 82.7933 29.0456 82.7933 31.9853C82.7933 35.5456 82.9552 35.8674 84.861 35.8674H86.0034V32.6992C85.9786 28.3202 85.5655 27.2787 83.5283 26.5666C82.1536 26.1059 80.4134 25.9688 79.1892 26.222Z" fill="#252525"/>
<path d="M123.501 26.222C122.077 26.521 120.767 27.3473 120.354 28.1964C120.101 28.7486 120.01 29.7596 120.01 32.4003V35.8693H123.134L123.111 32.4232C123.111 28.3354 123.18 28.1736 125.179 28.1736C127.178 28.1736 127.224 28.3354 127.315 32.4232L127.384 35.8693H130.645L130.508 32.8839C130.417 31.0923 130.462 29.6682 130.599 29.2531C131.014 28.0593 132.989 27.6462 134.114 28.541C134.712 29.0018 134.712 29.0475 134.712 31.9872C134.712 35.5704 134.872 35.8693 136.806 35.8693H138L137.886 32.3318C137.771 28.1736 137.541 27.6233 135.772 26.7037C134.807 26.222 134.348 26.1326 132.671 26.1326C131.386 26.1326 130.398 26.2696 129.845 26.5133C129.084 26.8351 128.88 26.8351 128.191 26.559C127.178 26.1306 124.743 25.9688 123.501 26.222Z" fill="#252525"/>
<path d="M101.747 26.382C100.034 26.7723 99.4738 27.0027 98.716 27.6691C97.4518 28.7714 97.269 29.4607 97.269 32.8839V35.8693H100.254L100.277 33.3942C100.277 30.2927 100.553 29.4207 101.633 29.0532C102.137 28.8852 102.663 28.7921 103.194 28.7771L103.929 28.7543V26.2278L103.08 26.2506C102.633 26.2596 102.187 26.3035 101.747 26.382Z" fill="#252525"/>
<path d="M106.732 29.5978C106.894 33.9635 107.099 34.5138 108.916 35.342C111.533 36.5358 115.37 35.9608 116.657 34.1996C117.093 33.6285 117.139 33.1429 117.207 29.8815L117.276 26.2297H116.133C115.168 26.2297 114.917 26.3211 114.526 26.8257C114.089 27.3778 114.043 27.7776 114.043 30.2261C114.043 31.7493 113.951 33.1201 113.852 33.2591C113.232 34.1768 111.301 34.3158 110.475 33.4647C109.925 32.9373 109.904 32.8231 109.904 29.5597V26.2297H106.619L106.732 29.5978Z" fill="#252525"/>
<path d="M38.7629 13.8579C38.2317 13.9302 38.2317 14.5814 38.2317 14.9698C38.2317 15.8304 38.8353 17.5763 40.0176 17.3021C41.5408 16.9461 40.109 13.6618 38.7629 13.8579ZM33.4071 8.07371C32.5827 8.43927 33.2529 10.4917 34.1858 11.4665C34.6028 11.9025 35.4367 12.4394 36.0251 11.9787C36.5467 11.5808 36.3697 10.6631 36.2155 10.1414C35.7528 8.64109 34.6923 7.19981 33.4129 8.07371M1.94074 6.84567C-0.861859 7.73671 0.78316 10.8306 2.17113 12.1767C4.66148 14.5547 9.7526 16.868 13.1949 15.5105C15.809 14.5128 14.0993 11.5674 12.698 10.2899C10.181 7.99566 5.43828 5.74139 1.94074 6.85329M24.7557 2.58467C23.9941 3.04542 24.2244 4.20873 24.55 4.86939C25.1421 6.1793 26.3664 7.57298 27.6706 8.2108C28.1961 8.46974 29.0471 8.71725 29.5993 8.31552C30.1971 7.81097 29.9115 6.62482 29.6526 6.01746C29.0256 4.60629 27.9147 3.46575 26.5206 2.80171C26.0141 2.57133 25.2888 2.2686 24.7557 2.58847M11.6623 0.280892C10.419 1.11101 11.5899 3.12538 12.2334 3.94979C13.711 5.89018 15.7274 7.35233 18.0309 8.15369C18.8458 8.44118 19.9349 8.77436 20.7345 8.27363C22.1149 7.43208 21.1039 5.56052 20.4013 4.63901C18.9505 2.73507 16.8524 1.12243 14.5848 0.330396C13.7947 0.0543247 12.4314 -0.225556 11.6718 0.280892" fill="#E52428"/>
<path d="M29.2717 36.6806C27.8209 37.0175 26.4977 38.1675 26.0217 39.5365C25.4144 41.3738 26.7947 42.6189 28.5825 42.2934C29.3061 42.1781 29.9816 41.8582 30.5291 41.3713C31.0767 40.8845 31.4735 40.2511 31.6726 39.546C32.12 37.8324 31.1719 36.2693 29.2737 36.6901M36.8551 34.9156C34.9512 35.1193 34.0982 39.3708 36.3944 39.2661C38.5801 39.1671 39.1513 34.6643 36.8551 34.9156ZM16.8638 33.0002C14.9922 33.3525 12.6408 34.3558 11.7117 36.1094C9.97152 39.3918 14.3201 40.2828 16.6334 39.8735C18.5221 39.5555 20.6069 38.8986 21.774 37.2575C22.0202 36.9142 22.1967 36.5261 22.2938 36.1151C23.0173 32.8993 19.0819 32.608 16.8714 33.006M40.5773 30.786C39.2446 31.2905 39.2636 34.6852 40.9695 34.1255C42.348 33.6723 42.2185 30.1881 40.5773 30.786ZM5.16407 21.2815C2.82984 21.6432 -1.47688 23.3339 0.508925 26.4659C0.776865 26.8597 1.10744 27.207 1.48755 27.494C3.71326 29.24 7.28124 29.5446 9.98674 29.1219C12.1953 28.7773 16.2526 27.1114 14.4115 24.1717C14.1347 23.7749 13.8041 23.4187 13.4291 23.1131C11.2624 21.3596 7.84863 20.8969 5.16407 21.2834" fill="#99C32E"/>
</svg>
